<?xml version="1.0" encoding="UTF-8"?><!DOCTYPE svg PUBLIC "-//W3C//DTD SVG 1.1//EN" "http://www.w3.org/Graphics/SVG/1.1/DTD/svg11.dtd"><svg xmlns="http://www.w3.org/2000/svg" xmlns:xlink="http://www.w3.org/1999/xlink"><defs/><symbol id="arrow-right" viewBox="0 0 360 360"><title>Arrow</title><g id="Icon"><path id="arrow" d="M229.05,112.62v52.2H22.42a16.89,16.89,0,1,0,0,33.79H229.05v52.2a3.87,3.87,0,0,0,5.81,3.35l119.65-69.09a3.87,3.87,0,0,0,0-6.71L234.86,109.26a3.87,3.87,0,0,0-5.81,3.35Z" style="fill-rule:evenodd"/></g></symbol><symbol id="calendar" viewBox="0 0 360 360"><title>Calendar</title><g id="Icon"><path id="Calendar" d="M187,225.81v53.12h45.53V225.81Zm-60.7,0v53.12h45.53V225.81Zm-60.7,0v53.12h45.53V225.81Zm182.11-68.29v53.12h45.53V157.52Zm-60.7,0v53.12h45.53V157.52Zm-60.7,0v53.12h45.53V157.52Zm-60.7,0v53.12h45.53V157.52ZM23.91,131H335V305.48H23.91ZM266.72,77.84a7.59,7.59,0,1,1-7.59,7.59A7.48,7.48,0,0,1,266.72,77.84Zm-174.53,0a7.59,7.59,0,1,1-7.59,7.59A7.48,7.48,0,0,1,92.2,77.84ZM266.72,62.67a22.76,22.76,0,1,0,22.76,22.76A22.88,22.88,0,0,0,266.72,62.67Zm-174.53,0A22.76,22.76,0,1,0,115,85.43,22.88,22.88,0,0,0,92.2,62.67ZM23.91,55.08H335v60.7H23.91Zm0-15.18A15.31,15.31,0,0,0,8.73,55.08V305.48a15.31,15.31,0,0,0,15.18,15.18H335a15.31,15.31,0,0,0,15.18-15.18V55.08A15.31,15.31,0,0,0,335,39.9Z"/></g></symbol></svg>