<svg version="1.0" xmlns="http://www.w3.org/2000/svg" width="800" height="800" viewBox="0 0 600 600"><path d="M184.3 102.4c-58.5 33.1-106.5 60.4-106.7 60.7-.5.5 72.7 43.1 74.9 43.7.7.2 32.2-16.8 70.1-37.6l68.9-37.9.3-44.7c.1-24.5-.1-44.6-.5-44.5-.5 0-48.6 27.2-107 60.3zM310 86.7v44.8l68.2 37.5c37.6 20.6 69 37.5 69.9 37.5 2.3 0 76.1-42.8 75.2-43.6-.5-.4-47.1-26.9-103.8-58.9C362.9 72 315 44.9 313.3 43.8l-3.3-2v44.9zM236 182c-34.9 19.3-63.6 35.4-63.8 35.8-.3.9 127.6 74.8 128.9 74.5 2.1-.6 127.4-73.4 127.7-74.2.3-.9-126.6-71.1-128.4-71.1-.5.1-29.5 15.8-64.4 35zM68 302.7c0 117.2.1 123.5 1.8 122.8.9-.3 18.2-10.2 38.4-21.8l36.8-21.2V223.4l-13.2-7.6c-7.3-4.2-24.7-14.1-38.5-22.1L68 179.1v123.6zm426.3-101.2-38.3 22v158.4l2.8 1.9c5.7 3.9 73.3 42.4 73.7 42 .3-.3.4-55.8.3-123.4l-.3-123-38.2 22.1zM163 304.2v70.3l63.6 35c34.9 19.2 64 35.2 64.5 35.3.6.2.8-25.9.7-68.3l-.3-68.6-58-33.5c-31.9-18.5-60.8-35.1-64.2-37.1l-6.3-3.5v70.4zm210.3-33.1L309 308.2v68.5c0 54.4.3 68.4 1.3 68 .6-.3 29.8-16.2 64.7-35.4l63.5-35 .3-70.1c.1-38.6-.1-70.2-.5-70.2-.5 0-29.7 16.7-65 37.1zM122.1 416.3C101 428.6 83.7 439 83.7 439.5c0 1.1 205.1 117.4 207.1 117.5 1 0 1.2-9.5 1-45.8l-.3-45.7-65-35.8C190.8 410.1 161.3 394 161 394c-.3.1-17.8 10.1-38.9 22.3zm252.7 13.4L310 465.3v92.5l103.6-58.7c57-32.2 103.7-59.1 103.7-59.6 0-.8-75.8-45.4-77.3-45.4-.3-.1-29.6 16-65.2 35.6z"/></svg>