<?xml version="1.0" standalone="no"?>
<!DOCTYPE svg PUBLIC "-//W3C//DTD SVG 20010904//EN"
 "http://www.w3.org/TR/2001/REC-SVG-20010904/DTD/svg10.dtd">
<svg version="1.0" xmlns="http://www.w3.org/2000/svg"
 width="600.000000pt" height="600.000000pt" viewBox="0 0 600.000000 600.000000"
 preserveAspectRatio="xMidYMid meet">
<metadata>
Created by potrace 1.11, written by Peter Selinger 2001-2013
</metadata>
<g transform="translate(0.000000,600.000000) scale(0.100000,-0.100000)"
fill="#000000" stroke="none">
<path d="M1843 4976 c-585 -331 -1065 -604 -1067 -607 -5 -5 727 -431 749
-437 7 -2 322 168 701 376 l689 379 3 447 c1 245 -1 446 -5 445 -5 0 -486
-272 -1070 -603z"/>
<path d="M3100 5133 l0 -448 682 -375 c376 -206 690 -375 699 -375 23 0 761
428 752 436 -5 4 -471 269 -1038 589 -566 320 -1045 591 -1062 602 l-33 20 0
-449z"/>
<path d="M2360 4180 c-349 -193 -636 -354 -638 -358 -3 -9 1276 -748 1289
-745 21 6 1274 734 1277 742 3 9 -1266 711 -1284 711 -5 -1 -295 -158 -644
-350z"/>
<path d="M680 2973 c0 -1172 1 -1235 18 -1228 9 3 182 102 384 218 l368 212 0
795 0 796 -132 76 c-73 42 -247 141 -385 221 l-253 146 0 -1236z"/>
<path d="M4943 3985 l-383 -220 0 -792 0 -792 28 -19 c57 -39 733 -424 737
-420 3 3 4 558 3 1234 l-3 1230 -382 -221z"/>
<path d="M1630 2958 l0 -703 636 -350 c349 -192 640 -352 645 -353 6 -2 8 259
7 683 l-3 686 -580 335 c-319 185 -608 351 -642 371 l-63 35 0 -704z"/>
<path d="M3733 3289 l-643 -371 0 -685 c0 -544 3 -684 13 -680 6 3 298 162
647 354 l635 350 3 701 c1 386 -1 702 -5 702 -5 0 -297 -167 -650 -371z"/>
<path d="M1221 1837 c-211 -123 -384 -227 -384 -232 0 -11 2051 -1174 2071
-1175 10 0 12 95 10 458 l-3 457 -650 358 c-357 196 -652 357 -655 357 -3 -1
-178 -101 -389 -223z"/>
<path d="M3748 1703 l-648 -356 0 -462 0 -463 1036 587 c570 322 1037 591
1037 596 0 8 -758 454 -773 454 -3 1 -296 -160 -652 -356z"/>
</g>
</svg>
